<?xml version="1.0" encoding="UTF-8"?>
<!DOCTYPE svg PUBLIC "-//W3C//DTD SVG 1.1//EN" "http://www.w3.org/Graphics/SVG/1.1/DTD/svg11.dtd">
<!-- Creator: CorelDRAW 2019 (64-Bit) -->
<svg xmlns="http://www.w3.org/2000/svg" xml:space="preserve" width="73.7048mm" height="13.2918mm" version="1.1" style="shape-rendering:geometricPrecision; text-rendering:geometricPrecision; image-rendering:optimizeQuality; fill-rule:evenodd; clip-rule:evenodd"
viewBox="0 0 1419.51 219.89"
 xmlns:xlink="http://www.w3.org/1999/xlink"
 xmlns:xodm="http://www.corel.com/coreldraw/odm/2003">
 <defs>
  <style type="text/css">
   <![CDATA[
    .fil0 {fill:#0065F2;fill-rule:nonzero}
   ]]>
  </style>
 </defs>
 <g id="Layer_x0020_1">
  <metadata id="CorelCorpID_0Corel-Layer"/>
  <g id="bb_x0020_plus_x0020_logo">
   <path class="fil0" d="M112.16 140.85c0,14.25 -4.06,26.15 -12.21,35.69 -8.67,10.16 -20.01,15.26 -33.95,15.26 -10.16,0 -18.38,-2.91 -24.62,-8.77 -0.49,-0.42 -0.87,-0.63 -1.22,-0.63 -0.66,0 -1.32,1.25 -1.87,3.74 -0.59,2.46 -1.28,3.85 -2.08,4.09 -1.14,0.35 -10.82,0.52 -28.96,0.52 -4.27,0 -6.42,-0.76 -6.42,-2.32 0,-0.21 0.07,-0.73 0.21,-1.52 1.39,-10.79 2.08,-31.28 2.08,-61.56 0,-28.89 -1.01,-54.04 -3.02,-75.44l-0.1 -1.11c0,-1.11 1.04,-1.7 3.15,-1.84 1.49,-0.07 7.35,-0.56 17.66,-1.49 7.22,-0.66 13.11,-1 17.62,-1 1.28,0 1.94,1.11 1.94,3.36 0,2.64 -0.17,6.1 -0.49,10.44 -0.38,5.34 -0.63,8.88 -0.69,10.58 -0.31,6.69 -0.49,15.81 -0.49,27.4 0,2.12 0.55,3.16 1.63,3.16 0.56,0 1.04,-0.28 1.53,-0.83 6.1,-6.52 14.08,-9.78 23.96,-9.78 14.84,0 26.43,5.06 34.75,15.16 7.73,9.37 11.59,21.64 11.59,36.9l-0 -0.01zm-36.83 -1.11c0,-5.66 -1.73,-10.4 -5.17,-14.29 -3.47,-3.92 -7.94,-5.86 -13.49,-5.86 -5.69,0 -10.2,1.94 -13.46,5.86 -3.3,3.88 -4.93,8.71 -4.93,14.46 0,5.96 1.59,10.78 4.79,14.46 3.36,3.85 7.98,5.79 13.81,5.79 5.72,0 10.3,-2.01 13.66,-6 3.19,-3.74 4.78,-8.53 4.78,-14.43zm159.36 1.11c0,14.25 -4.06,26.15 -12.21,35.69 -8.67,10.16 -20.01,15.26 -33.95,15.26 -10.16,0 -18.38,-2.91 -24.62,-8.77 -0.49,-0.42 -0.87,-0.63 -1.21,-0.63 -0.66,0 -1.32,1.25 -1.87,3.74 -0.59,2.46 -1.28,3.85 -2.08,4.09 -1.14,0.35 -10.82,0.52 -28.96,0.52 -4.27,0 -6.42,-0.76 -6.42,-2.32 0,-0.21 0.07,-0.73 0.21,-1.52 1.39,-10.79 2.08,-31.28 2.08,-61.56 0,-28.89 -1.01,-54.04 -3.02,-75.44l-0.1 -1.11c0,-1.11 1.04,-1.7 3.16,-1.84 1.49,-0.07 7.35,-0.56 17.66,-1.49 7.21,-0.66 13.11,-1 17.62,-1 1.28,0 1.94,1.11 1.94,3.36 0,2.64 -0.17,6.1 -0.49,10.44 -0.38,5.34 -0.63,8.88 -0.69,10.58 -0.31,6.69 -0.49,15.81 -0.49,27.4 0,2.12 0.55,3.16 1.63,3.16 0.56,0 1.04,-0.28 1.52,-0.83 6.1,-6.52 14.08,-9.78 23.97,-9.78 14.84,0 26.43,5.06 34.75,15.16 7.73,9.37 11.59,21.64 11.59,36.9l-0.01 -0.01zm-36.83 -1.11c0,-5.66 -1.73,-10.4 -5.17,-14.29 -3.47,-3.92 -7.94,-5.86 -13.49,-5.86 -5.69,0 -10.2,1.94 -13.46,5.86 -3.3,3.88 -4.93,8.71 -4.93,14.46 0,5.96 1.59,10.78 4.79,14.46 3.36,3.85 7.98,5.79 13.81,5.79 5.72,0 10.3,-2.01 13.66,-6 3.19,-3.74 4.78,-8.53 4.78,-14.43l0 0z"/>
   <path class="fil0" d="M247.8 43.1c-2.44,0 -5.83,-0.07 -10.17,-0.27 -4.9,-0.19 -8.32,-0.3 -10.24,-0.3 0.05,1.97 0.17,5.61 0.37,10.95 0.15,4.58 0.2,8.2 0.2,10.9 0,1.87 -3.62,2.81 -10.9,2.81 -7.04,0 -10.56,-0.59 -10.56,-1.8 0,-2.98 0.07,-6.84 0.22,-11.55 0.15,-6.5 0.24,-10.31 0.3,-11.47 -12.6,0.39 -19.25,0.57 -19.96,0.57 -0.86,0 -1.3,-0.74 -1.3,-2.24 0,-0.47 0.24,-3.2 0.71,-8.22 0.05,-2.88 0.15,-5.83 0.3,-8.88 0.44,-0.71 1.08,-1.09 1.95,-1.09 2.36,0 5.42,0.07 9.16,0.22 5,0.15 8.05,0.24 9.16,0.3 -0.1,-4.23 -0.15,-8.74 -0.15,-13.54l0 -7.83c0,-0.91 0.64,-1.38 1.89,-1.38 1.77,0 4.41,-0.05 7.9,-0.15 3.5,-0.1 6.1,-0.15 7.85,-0.15 2.36,0 3.54,0.42 3.54,1.23 0,2.38 -0.1,6.06 -0.27,10.95 -0.17,4.87 -0.24,8.56 -0.24,11 10.29,-0.2 17.28,-0.3 21,-0.3 1.01,0 1.5,0.44 1.5,1.3 0,0.54 -0.24,3.5 -0.79,8.89 0.15,2.02 0,5.02 -0.44,9.01 -0.17,0.69 -0.52,1.01 -1.01,1.01l-0.01 0z"/>
   <path class="fil0" d="M298.79 107.41c0.83,-10.56 1.37,-18.86 1.65,-24.9 0.4,-8.27 0.79,-19.59 1.15,-33.98 0.38,-14.41 0.56,-24.55 0.56,-30.45 0,-2.11 -0.02,-5.11 -0.06,-8.94 5.23,0.15 9.38,0.22 12.45,0.22 4.29,0 9.26,-0.12 14.96,-0.32 5.7,-0.22 10.59,-0.34 14.68,-0.34 4.91,0 8.42,0.17 10.49,0.52 2.76,0.44 5.17,1.2 7.23,2.31 2.07,1.11 3.78,2.45 5.16,4.1 1.53,1.91 2.74,4.22 3.61,6.9 0.99,3.07 1.47,6.36 1.47,9.87 0,2.73 -0.28,5.33 -0.85,7.83 -0.59,2.51 -1.39,4.71 -2.43,6.66 -1.03,1.94 -2.2,3.56 -3.51,4.86 -1.29,1.3 -2.56,2.31 -3.81,3.02 -1.22,0.71 -2.88,1.45 -4.97,2.16 2.07,0.42 3.74,0.93 5,1.47 1.27,0.54 2.6,1.45 4.03,2.68 1.43,1.2 2.72,2.78 3.87,4.71 1.13,1.91 1.97,4.05 2.56,6.43 0.56,2.38 0.84,4.88 0.84,7.54 0,3.64 -0.48,7.07 -1.47,10.29 -0.99,3.21 -2.35,5.99 -4.13,8.27 -1.49,1.99 -3.44,3.66 -5.84,5.06 -2.4,1.37 -4.85,2.36 -7.35,2.87 -2.05,0.39 -5.78,0.66 -11.18,0.86 -5.4,0.19 -11.11,0.3 -17.18,0.3l-15.49 -0.07 -11.44 0.07 0.01 -0zm26.38 -59.96l8.31 0c2.74,0 4.67,-0.07 5.84,-0.24 1.15,-0.17 2.28,-0.47 3.36,-0.91 1.09,-0.44 2.03,-1.16 2.84,-2.16 0.81,-1.01 1.37,-2.14 1.69,-3.39 0.34,-1.25 0.5,-2.48 0.5,-3.73 0,-1.79 -0.34,-3.36 -1.02,-4.76 -0.68,-1.4 -1.79,-2.43 -3.3,-3.09 -1.53,-0.66 -3.87,-1.01 -6.99,-1.01l-10.55 0 -0.69 19.3 0.01 0zm-1.41 40.22l11.26 0c2.98,0 5.16,-0.22 6.56,-0.64 1.73,-0.54 3.04,-1.23 3.93,-2.11 0.9,-0.86 1.61,-2.04 2.16,-3.54 0.52,-1.47 0.79,-3.15 0.79,-4.96 0,-1.59 -0.22,-2.99 -0.65,-4.2 -0.42,-1.2 -1.07,-2.21 -1.93,-3.02 -0.86,-0.81 -1.91,-1.4 -3.16,-1.77 -1.25,-0.37 -3.2,-0.54 -5.86,-0.54l-12.36 0 -0.73 20.77 -0 0zm125.78 19.74c-4.49,-0.1 -8.24,-0.15 -11.22,-0.15 -3.71,0 -7.41,0.05 -11.16,0.15l-0.08 -9.87c-1.43,2.19 -2.62,3.81 -3.61,4.88 -0.99,1.08 -2.05,2.04 -3.22,2.85 -1.15,0.83 -2.45,1.55 -3.89,2.14 -1.43,0.62 -3.08,1.08 -4.95,1.4 -1.87,0.34 -3.77,0.51 -5.68,0.51 -3.12,0 -6.04,-0.44 -8.82,-1.33 -2.78,-0.91 -5.22,-2.41 -7.31,-4.52 -2.12,-2.11 -3.54,-4.52 -4.31,-7.22 -0.76,-2.7 -1.15,-5.82 -1.15,-9.38 0,-0.86 0.06,-2.21 0.18,-4.03l0.93 -16.35c0.28,-6 0.54,-12.65 0.76,-19.94 0.17,-4.47 0.24,-8.69 0.24,-12.67 4.87,0.1 9.02,0.15 12.42,0.15 3.46,0 7.27,-0.05 11.44,-0.15l-1.83 27.43c-0.28,4.18 -0.43,7.02 -0.44,8.55 -0.02,1.5 -0.04,2.53 -0.04,3.04 0,5.08 0.85,8.52 2.5,10.31 1.67,1.79 3.65,2.68 5.96,2.68 0.93,0 1.87,-0.17 2.8,-0.52 0.95,-0.32 1.85,-0.81 2.72,-1.45 0.72,-0.56 1.41,-1.3 2.03,-2.16 0.67,-0.91 1.27,-2.01 1.77,-3.31 0.63,-1.59 1.09,-3.31 1.41,-5.13 0.42,-2.55 0.76,-5.79 0.99,-9.7 0.18,-2.82 0.4,-7.74 0.69,-14.68l0.5 -15.05c5.1,0.1 9.26,0.15 12.55,0.15 3.67,0 7.35,-0.05 11.06,-0.15 -0.89,12.2 -1.59,23.79 -2.09,34.77 -0.5,11 -0.88,23.92 -1.15,38.75l-0.01 0zm12.87 -1.33c-0.17,-2.11 -0.3,-4.35 -0.47,-6.68 -0.16,-2.33 -0.4,-5.55 -0.77,-9.62l-0.46 -5.21c3.81,1.84 7.07,3.22 9.8,4.1 2.74,0.91 5.27,1.35 7.57,1.35 1.93,0 3.48,-0.22 4.67,-0.64 1.21,-0.44 2.07,-1.05 2.62,-1.86 0.54,-0.81 0.83,-1.65 0.83,-2.5 0,-0.79 -0.2,-1.52 -0.63,-2.29 -0.4,-0.74 -1.33,-1.74 -2.78,-3.04 -3.2,-2.87 -6.02,-5.5 -8.46,-7.85 -2.44,-2.33 -4.27,-4.42 -5.5,-6.26 -1.22,-1.82 -2.18,-3.78 -2.82,-5.9 -0.65,-2.11 -0.97,-4.3 -0.97,-6.53 0,-4 0.93,-7.71 2.8,-11.17 1.85,-3.44 4.61,-5.94 8.24,-7.52 3.62,-1.55 8.05,-2.33 13.27,-2.33 5.46,0 12.41,0.89 20.88,2.65l0.97 20.04c-4.73,-2.26 -9.28,-3.39 -13.67,-3.39 -3.08,0 -5.34,0.39 -6.73,1.15 -1.39,0.79 -2.07,1.97 -2.07,3.58 0,0.52 0.08,1.03 0.24,1.5 0.14,0.49 0.44,0.99 0.85,1.52 0.4,0.52 0.93,1.06 1.53,1.62 0.6,0.54 2.07,1.82 4.43,3.83 2.35,2.01 4.19,3.68 5.52,4.99 2.19,2.11 3.87,4.05 5.04,5.84 1.15,1.82 2.03,3.73 2.64,5.77 0.6,2.04 0.91,4.18 0.91,6.43 0,3.41 -0.69,6.53 -2.03,9.38 -1.35,2.87 -3.41,5.25 -6.14,7.17 -2.72,1.92 -5.68,3.24 -8.88,4.01 -3.18,0.73 -6.46,1.1 -9.84,1.1 -2.28,0 -5.13,-0.25 -8.58,-0.71 -3.44,-0.49 -7.43,-1.33 -12,-2.53l0.01 -0.01zm62.21 -81.32c0.24,-5.7 0.36,-10.19 0.36,-13.5 0,-0.96 -0.02,-2.26 -0.06,-3.88 4.75,0.1 8.72,0.15 11.94,0.15 4.43,0 8.31,-0.05 11.66,-0.15 -0.12,1.47 -0.2,2.72 -0.24,3.73l-0.34 8.92c-0.08,1.33 -0.12,2.92 -0.12,4.74 -3.89,-0.1 -7.61,-0.15 -11.19,-0.15 -3.69,0 -7.69,0.05 -12,0.15l0 -0.01zm-3.75 82.65c0.54,-5.87 0.95,-10.68 1.21,-14.46 0.28,-3.81 0.54,-8.64 0.79,-14.56 0.27,-5.89 0.48,-12.42 0.67,-19.57 0.2,-7.17 0.36,-15.47 0.47,-24.92 5.11,0.1 9.2,0.15 12.29,0.15 2.78,0 6.79,-0.05 12.02,-0.15 -0.65,9.06 -1.11,17.04 -1.37,23.92 -0.28,6.85 -0.46,14.12 -0.54,21.8 -0.14,13.63 -0.22,22.91 -0.22,27.79 -4.69,-0.1 -8.72,-0.15 -12.12,-0.15 -3.34,0 -7.73,0.05 -13.17,0.15l-0.01 -0zm37.45 0c1.15,-10.9 2.02,-22.93 2.62,-36.12 0.63,-13.16 0.99,-25.63 1.11,-37.4 4.71,0.1 8.8,0.15 12.22,0.15 3.99,0 7.81,-0.05 11.48,-0.15l-0.52 9.8c1.29,-1.77 2.39,-3.17 3.35,-4.18 0.95,-1.03 2.12,-2.04 3.5,-3 1.41,-0.98 2.88,-1.77 4.45,-2.4 1.57,-0.62 3.28,-1.11 5.16,-1.45 1.87,-0.37 3.83,-0.54 5.86,-0.54 2.82,0 5.58,0.37 8.27,1.11 2.68,0.73 4.93,1.79 6.75,3.17 1.79,1.35 3.3,3.04 4.53,5.08 1.21,2.04 2.02,4.22 2.42,6.56 0.38,2.33 0.59,4.77 0.59,7.24 0,1.82 -0.16,5.77 -0.48,11.81l-0.99 26.05c-0.2,5.16 -0.3,9.9 -0.3,14.27 -3.97,-0.1 -7.69,-0.15 -11.16,-0.15 -4.67,0 -8.94,0.05 -12.81,0.15 0.34,-4.37 0.7,-10.86 1.09,-19.47 0.38,-8.62 0.59,-14.68 0.59,-18.19 0,-5.4 -0.87,-9.16 -2.56,-11.29 -1.71,-2.14 -3.87,-3.19 -6.45,-3.19 -2.28,0 -4.43,0.91 -6.44,2.72 -2.03,1.84 -3.58,4.47 -4.69,7.95 -1.09,3.49 -1.87,9.21 -2.32,17.16 -0.47,7.95 -0.76,16.06 -0.93,24.31 -3.93,-0.1 -7.78,-0.15 -11.52,-0.15 -3.93,0 -8.2,0.05 -12.81,0.15l0 -0.01zm141.21 -21.66c-0.5,2.87 -1.47,9.8 -2.9,20.77 -4.57,1.13 -8.42,1.86 -11.54,2.23 -3.12,0.37 -6.26,0.56 -9.47,0.56 -4.69,0 -9.02,-0.39 -12.95,-1.18 -3.94,-0.79 -7.35,-2.21 -10.21,-4.22 -2.86,-1.99 -5.26,-4.5 -7.19,-7.49 -1.93,-3 -3.4,-6.56 -4.41,-10.68 -1.01,-4.12 -1.51,-8.38 -1.51,-12.72 0,-6.14 1.01,-12.15 3.02,-18.02 1.99,-5.87 4.59,-10.46 7.75,-13.75 3.18,-3.31 6.82,-5.67 10.96,-7.05 4.13,-1.4 8.38,-2.08 12.71,-2.08 4.47,0 8.76,0.64 12.83,1.92 4.09,1.26 7.53,3.49 10.37,6.63 2.84,3.17 4.85,6.73 6.06,10.7 1.19,3.98 1.79,8.27 1.79,12.87 0,2.75 -0.24,5.77 -0.72,9.13l-41.5 0.07c-0.04,0.76 -0.06,1.45 -0.06,2.08 0,5.16 1.53,8.96 4.57,11.42 3.04,2.43 6.75,3.66 11.14,3.66 2.59,0 5.58,-0.37 8.92,-1.11 3.32,-0.74 7.45,-1.99 12.34,-3.76l-0 0.01zm-36.45 -23.28l19.53 0c0.04,-0.81 0.06,-1.5 0.06,-2.08 0,-2.48 -0.36,-4.61 -1.09,-6.39 -0.75,-1.77 -1.79,-3.04 -3.14,-3.85 -1.37,-0.81 -2.9,-1.22 -4.59,-1.22 -1.19,0 -2.32,0.22 -3.42,0.69 -1.11,0.44 -2.12,1.13 -3,2.02 -0.88,0.88 -1.63,1.89 -2.21,3.04 -0.58,1.13 -1.02,2.26 -1.31,3.31 -0.26,1.08 -0.54,2.58 -0.83,4.5l-0 -0.01zm49 43.61c-0.16,-2.11 -0.3,-4.35 -0.47,-6.68 -0.16,-2.33 -0.4,-5.55 -0.76,-9.62l-0.46 -5.21c3.81,1.84 7.07,3.22 9.8,4.1 2.74,0.91 5.28,1.35 7.57,1.35 1.93,0 3.48,-0.22 4.67,-0.64 1.21,-0.44 2.08,-1.05 2.62,-1.86 0.54,-0.81 0.83,-1.65 0.83,-2.5 0,-0.79 -0.2,-1.52 -0.63,-2.29 -0.4,-0.74 -1.33,-1.74 -2.78,-3.04 -3.2,-2.87 -6.02,-5.5 -8.46,-7.85 -2.44,-2.33 -4.27,-4.42 -5.5,-6.26 -1.22,-1.82 -2.18,-3.78 -2.82,-5.9 -0.64,-2.11 -0.96,-4.3 -0.96,-6.53 0,-4 0.93,-7.71 2.8,-11.17 1.85,-3.44 4.61,-5.94 8.24,-7.52 3.62,-1.55 8.06,-2.33 13.27,-2.33 5.46,0 12.41,0.89 20.88,2.65l0.97 20.04c-4.73,-2.26 -9.28,-3.39 -13.67,-3.39 -3.08,0 -5.34,0.39 -6.73,1.15 -1.39,0.79 -2.07,1.97 -2.07,3.58 0,0.52 0.08,1.03 0.24,1.5 0.14,0.49 0.44,0.99 0.85,1.52 0.4,0.52 0.93,1.06 1.53,1.62 0.6,0.54 2.08,1.82 4.43,3.83 2.36,2.01 4.19,3.68 5.52,4.99 2.2,2.11 3.87,4.05 5.04,5.84 1.15,1.82 2.03,3.73 2.64,5.77 0.6,2.04 0.91,4.18 0.91,6.43 0,3.41 -0.68,6.53 -2.03,9.38 -1.35,2.87 -3.41,5.25 -6.14,7.17 -2.72,1.92 -5.68,3.24 -8.88,4.01 -3.18,0.73 -6.46,1.1 -9.84,1.1 -2.28,0 -5.13,-0.25 -8.58,-0.71 -3.44,-0.49 -7.43,-1.33 -12,-2.53l0 -0.01zm58.34 0c-0.16,-2.11 -0.3,-4.35 -0.47,-6.68 -0.16,-2.33 -0.4,-5.55 -0.76,-9.62l-0.46 -5.21c3.81,1.84 7.07,3.22 9.8,4.1 2.74,0.91 5.27,1.35 7.57,1.35 1.93,0 3.48,-0.22 4.67,-0.64 1.21,-0.44 2.07,-1.05 2.62,-1.86 0.54,-0.81 0.83,-1.65 0.83,-2.5 0,-0.79 -0.2,-1.52 -0.63,-2.29 -0.4,-0.74 -1.33,-1.74 -2.78,-3.04 -3.2,-2.87 -6.02,-5.5 -8.46,-7.85 -2.44,-2.33 -4.27,-4.42 -5.5,-6.26 -1.22,-1.82 -2.17,-3.78 -2.82,-5.9 -0.65,-2.11 -0.97,-4.3 -0.97,-6.53 0,-4 0.93,-7.71 2.8,-11.17 1.85,-3.44 4.61,-5.94 8.24,-7.52 3.62,-1.55 8.05,-2.33 13.27,-2.33 5.46,0 12.41,0.89 20.88,2.65l0.97 20.04c-4.73,-2.26 -9.28,-3.39 -13.67,-3.39 -3.08,0 -5.34,0.39 -6.73,1.15 -1.39,0.79 -2.07,1.97 -2.07,3.58 0,0.52 0.08,1.03 0.24,1.5 0.14,0.49 0.44,0.99 0.85,1.52 0.4,0.52 0.93,1.06 1.53,1.62 0.6,0.54 2.07,1.82 4.43,3.83 2.35,2.01 4.19,3.68 5.52,4.99 2.19,2.11 3.87,4.05 5.04,5.84 1.15,1.82 2.03,3.73 2.64,5.77 0.6,2.04 0.9,4.18 0.9,6.43 0,3.41 -0.69,6.53 -2.03,9.38 -1.35,2.87 -3.4,5.25 -6.14,7.17 -2.72,1.92 -5.68,3.24 -8.88,4.01 -3.18,0.73 -6.46,1.1 -9.85,1.1 -2.28,0 -5.13,-0.25 -8.58,-0.71 -3.44,-0.49 -7.43,-1.33 -12,-2.53l0 -0.01zm59.79 1.33c0.83,-10.56 1.37,-18.86 1.65,-24.9 0.4,-8.27 0.79,-19.59 1.15,-33.98 0.38,-14.41 0.56,-24.55 0.56,-30.45 0,-2.11 -0.02,-5.11 -0.06,-8.94 5.23,0.15 9.38,0.22 12.45,0.22 4.29,0 9.26,-0.12 14.96,-0.32 5.7,-0.22 10.6,-0.34 14.68,-0.34 4.91,0 8.42,0.17 10.49,0.52 2.76,0.44 5.18,1.2 7.23,2.31 2.07,1.11 3.78,2.45 5.16,4.1 1.53,1.91 2.74,4.22 3.61,6.9 0.99,3.07 1.47,6.36 1.47,9.87 0,2.73 -0.28,5.33 -0.84,7.83 -0.59,2.51 -1.39,4.71 -2.44,6.66 -1.02,1.94 -2.19,3.56 -3.51,4.86 -1.29,1.3 -2.55,2.31 -3.81,3.02 -1.22,0.71 -2.88,1.45 -4.97,2.16 2.07,0.42 3.74,0.93 5,1.47 1.27,0.54 2.6,1.45 4.03,2.68 1.43,1.2 2.72,2.78 3.87,4.71 1.13,1.91 1.97,4.05 2.56,6.43 0.56,2.38 0.85,4.88 0.85,7.54 0,3.64 -0.49,7.07 -1.47,10.29 -0.99,3.21 -2.35,5.99 -4.13,8.27 -1.49,1.99 -3.44,3.66 -5.84,5.06 -2.4,1.37 -4.85,2.36 -7.35,2.87 -2.05,0.39 -5.78,0.66 -11.18,0.86 -5.4,0.19 -11.12,0.3 -17.18,0.3l-15.49 -0.07 -11.44 0.07 -0.01 -0zm26.38 -59.96l8.31 0c2.74,0 4.67,-0.07 5.84,-0.24 1.15,-0.17 2.28,-0.47 3.36,-0.91 1.09,-0.44 2.04,-1.16 2.84,-2.16 0.8,-1.01 1.37,-2.14 1.69,-3.39 0.34,-1.25 0.5,-2.48 0.5,-3.73 0,-1.79 -0.34,-3.36 -1.03,-4.76 -0.68,-1.4 -1.79,-2.43 -3.3,-3.09 -1.53,-0.66 -3.87,-1.01 -6.99,-1.01l-10.55 0 -0.69 19.3 0.01 0zm-1.41 40.22l11.26 0c2.98,0 5.16,-0.22 6.56,-0.64 1.73,-0.54 3.04,-1.23 3.93,-2.11 0.91,-0.86 1.61,-2.04 2.16,-3.54 0.52,-1.47 0.79,-3.15 0.79,-4.96 0,-1.59 -0.22,-2.99 -0.64,-4.2 -0.43,-1.2 -1.07,-2.21 -1.93,-3.02 -0.87,-0.81 -1.91,-1.4 -3.16,-1.77 -1.25,-0.37 -3.2,-0.54 -5.86,-0.54l-12.36 0 -0.72 20.77 -0.01 0zm94.89 -55.54c4.9,0 9.59,0.91 14.1,2.73 4.51,1.84 8.31,4.44 11.42,7.88 3.12,3.44 5.42,7.44 6.89,12.03 1.47,4.56 2.21,9.5 2.21,14.78 0,5.13 -0.67,9.99 -1.98,14.64 -1.33,4.61 -3.56,8.96 -6.71,13.01 -3.16,4.05 -7.17,7.09 -12.02,9.11 -4.85,2.01 -10.01,3.02 -15.45,3.02 -5,0 -9.81,-0.88 -14.42,-2.65 -4.59,-1.79 -8.46,-4.37 -11.54,-7.78 -3.1,-3.41 -5.42,-7.49 -6.97,-12.23 -1.55,-4.74 -2.34,-9.75 -2.34,-14.95 0,-5.23 0.76,-10.24 2.28,-14.98 1.51,-4.74 3.91,-9.01 7.21,-12.79 3.28,-3.81 7.35,-6.7 12.18,-8.74 4.85,-2.04 9.89,-3.07 15.12,-3.07l0.01 0zm-0.4 21.21c-2.52,0 -4.77,0.79 -6.75,2.36 -1.96,1.6 -3.44,3.9 -4.45,6.92 -1.01,3.04 -1.51,6.36 -1.51,9.94 0,5.26 1.09,9.28 3.24,12.08 2.18,2.8 4.89,4.2 8.15,4.2 2.48,0 4.71,-0.81 6.69,-2.41 1.96,-1.59 3.44,-3.98 4.45,-7.09 1.01,-3.15 1.51,-6.49 1.51,-10.09 0,-2.95 -0.4,-5.62 -1.19,-8.03 -0.79,-2.38 -2.07,-4.3 -3.87,-5.72 -1.79,-1.45 -3.89,-2.16 -6.28,-2.16l0 -0.01zm78.82 -21.21c4.89,0 9.59,0.91 14.1,2.73 4.51,1.84 8.31,4.44 11.42,7.88 3.12,3.44 5.42,7.44 6.89,12.03 1.47,4.56 2.21,9.5 2.21,14.78 0,5.13 -0.67,9.99 -1.97,14.64 -1.33,4.61 -3.57,8.96 -6.71,13.01 -3.16,4.05 -7.17,7.09 -12.02,9.11 -4.85,2.01 -10.01,3.02 -15.45,3.02 -5,0 -9.81,-0.88 -14.42,-2.65 -4.59,-1.79 -8.46,-4.37 -11.54,-7.78 -3.1,-3.41 -5.42,-7.49 -6.97,-12.23 -1.55,-4.74 -2.34,-9.75 -2.34,-14.95 0,-5.23 0.76,-10.24 2.28,-14.98 1.51,-4.74 3.91,-9.01 7.21,-12.79 3.28,-3.81 7.35,-6.7 12.19,-8.74 4.85,-2.04 9.89,-3.07 15.12,-3.07l0.01 0zm-0.4 21.21c-2.52,0 -4.77,0.79 -6.75,2.36 -1.96,1.6 -3.44,3.9 -4.45,6.92 -1.01,3.04 -1.51,6.36 -1.51,9.94 0,5.26 1.09,9.28 3.24,12.08 2.18,2.8 4.89,4.2 8.15,4.2 2.48,0 4.71,-0.81 6.69,-2.41 1.96,-1.59 3.44,-3.98 4.45,-7.09 1.01,-3.15 1.51,-6.49 1.51,-10.09 0,-2.95 -0.4,-5.62 -1.19,-8.03 -0.79,-2.38 -2.07,-4.3 -3.87,-5.72 -1.79,-1.45 -3.89,-2.16 -6.28,-2.16l0 -0.01zm43.48 54.07c0.55,-6.14 0.95,-11.12 1.19,-14.98 0.3,-5.23 0.63,-11.79 0.95,-19.64l0.64 -17.06c0.28,-7.74 0.47,-15.13 0.59,-22.17 0.16,-8.44 0.24,-16.57 0.24,-24.41 5.5,0.1 9.63,0.15 12.39,0.15 3.18,0 6.95,-0.05 11.32,-0.15 -0.9,12.57 -1.73,28.18 -2.48,46.87 -0.74,18.66 -1.11,35.8 -1.11,51.39 -4.57,-0.1 -8.42,-0.15 -11.58,-0.15 -3.61,0 -7.65,0.05 -12.14,0.15l-0 0.01zm25.98 -41.32l10.17 -17.85 7.63 -14.34c5.44,0.1 9.54,0.15 12.34,0.15 3.87,0 8.44,-0.05 13.71,-0.15l-11.74 18.66c-2.75,4.27 -5.58,8.89 -8.44,13.82 2.76,6.19 9.41,19.87 19.94,41.03 -4.61,-0.1 -8.78,-0.15 -12.48,-0.15 -3.79,0 -8.14,0.05 -13.03,0.15l-3.66 -8.99c-1.31,-3.15 -2.42,-5.74 -3.36,-7.85 -0.36,-0.86 -3.06,-6.75 -8.12,-17.63l-2.96 -6.85 -0 -0.01zm80.77 41.32l1.19 -18.44 1.57 -36 0.65 -25.46c0.04,-2.75 0.06,-5.47 0.06,-8.22 0,-2.06 -0.02,-5.43 -0.06,-10.14 5.2,0.15 9.37,0.22 12.51,0.22 3.02,0 7.17,-0.12 12.42,-0.32 5.27,-0.22 9.73,-0.34 13.39,-0.34 5.26,0 9.16,0.42 11.68,1.22 2.54,0.81 4.84,2.11 6.87,3.86 2.05,1.77 3.74,3.81 5.07,6.16 1.33,2.36 2.34,5.03 3,8.03 0.67,3 1.01,6.06 1.01,9.18 0,6.43 -1.26,12.32 -3.83,17.66 -2.56,5.33 -6.14,9.3 -10.77,11.96 -4.63,2.63 -9.84,3.95 -15.61,3.95 -2.13,0 -4.59,-0.3 -7.37,-0.88 -0.3,-2.19 -0.91,-5.45 -1.75,-9.8 -0.86,-4.35 -1.57,-7.56 -2.12,-9.65 1.73,0.39 3.52,0.59 5.4,0.59 3.97,0 6.91,-1.18 8.86,-3.51 1.93,-2.33 2.9,-5.18 2.9,-8.55 0,-1.65 -0.22,-3.09 -0.64,-4.37 -0.44,-1.28 -1.13,-2.31 -2.07,-3.15 -0.93,-0.81 -1.97,-1.33 -3.12,-1.57 -1.13,-0.24 -2.44,-0.37 -3.89,-0.37 -1.41,0 -2.88,0.05 -4.41,0.15l-4.95 0.42c-0.5,9.26 -0.89,19.57 -1.17,30.89 -0.48,20.62 -0.74,33 -0.74,37.12l0 9.35 -11.76 -0.15c-1.65,0 -5.76,0.05 -12.3,0.15l-0 -0.01zm76.02 0l1.05 -15.49 2.28 -53.82 0.65 -28.95c5.46,0.1 9.57,0.15 12.32,0.15 3.58,0 7.53,-0.05 11.86,-0.15l-1.33 22.1 -2.16 54.44 -0.46 21.73c-4.23,-0.05 -8.02,-0.07 -11.4,-0.07l-12.81 0.07 -0.01 -0zm103.51 0c-4.49,-0.1 -8.24,-0.15 -11.22,-0.15 -3.71,0 -7.41,0.05 -11.16,0.15l-0.08 -9.87c-1.43,2.19 -2.62,3.81 -3.61,4.88 -0.99,1.08 -2.05,2.04 -3.22,2.85 -1.15,0.83 -2.45,1.55 -3.89,2.14 -1.43,0.62 -3.08,1.08 -4.95,1.4 -1.87,0.34 -3.77,0.51 -5.68,0.51 -3.12,0 -6.04,-0.44 -8.82,-1.33 -2.78,-0.91 -5.22,-2.41 -7.31,-4.52 -2.12,-2.11 -3.54,-4.52 -4.31,-7.22 -0.76,-2.7 -1.15,-5.82 -1.15,-9.38 0,-0.86 0.06,-2.21 0.18,-4.03l0.93 -16.35c0.28,-6 0.54,-12.65 0.76,-19.94 0.17,-4.47 0.24,-8.69 0.24,-12.67 4.87,0.1 9.02,0.15 12.42,0.15 3.47,0 7.27,-0.05 11.44,-0.15l-1.83 27.43c-0.28,4.18 -0.42,7.02 -0.44,8.55 -0.02,1.5 -0.04,2.53 -0.04,3.04 0,5.08 0.85,8.52 2.5,10.31 1.67,1.79 3.65,2.68 5.96,2.68 0.93,0 1.88,-0.17 2.8,-0.52 0.95,-0.32 1.85,-0.81 2.72,-1.45 0.72,-0.56 1.41,-1.3 2.03,-2.16 0.67,-0.91 1.27,-2.01 1.77,-3.31 0.63,-1.59 1.09,-3.31 1.41,-5.13 0.43,-2.55 0.76,-5.79 0.99,-9.7 0.18,-2.82 0.4,-7.74 0.69,-14.68l0.5 -15.05c5.09,0.1 9.26,0.15 12.55,0.15 3.67,0 7.35,-0.05 11.06,-0.15 -0.89,12.2 -1.59,23.79 -2.09,34.77 -0.5,11 -0.89,23.92 -1.15,38.75l-0.01 0zm12.87 -1.33c-0.16,-2.11 -0.3,-4.35 -0.46,-6.68 -0.16,-2.33 -0.4,-5.55 -0.76,-9.62l-0.47 -5.21c3.81,1.84 7.07,3.22 9.81,4.1 2.74,0.91 5.27,1.35 7.57,1.35 1.93,0 3.48,-0.22 4.67,-0.64 1.21,-0.44 2.08,-1.05 2.62,-1.86 0.54,-0.81 0.83,-1.65 0.83,-2.5 0,-0.79 -0.2,-1.52 -0.63,-2.29 -0.4,-0.74 -1.33,-1.74 -2.78,-3.04 -3.2,-2.87 -6.02,-5.5 -8.46,-7.85 -2.44,-2.33 -4.27,-4.42 -5.5,-6.26 -1.23,-1.82 -2.17,-3.78 -2.82,-5.9 -0.65,-2.11 -0.97,-4.3 -0.97,-6.53 0,-4 0.93,-7.71 2.8,-11.17 1.85,-3.44 4.61,-5.94 8.23,-7.52 3.63,-1.55 8.06,-2.33 13.27,-2.33 5.46,0 12.4,0.89 20.88,2.65l0.97 20.04c-4.73,-2.26 -9.28,-3.39 -13.67,-3.39 -3.08,0 -5.34,0.39 -6.73,1.15 -1.39,0.79 -2.07,1.97 -2.07,3.58 0,0.52 0.08,1.03 0.24,1.5 0.14,0.49 0.44,0.99 0.85,1.52 0.4,0.52 0.93,1.06 1.53,1.62 0.61,0.54 2.08,1.82 4.43,3.83 2.35,2.01 4.19,3.68 5.52,4.99 2.19,2.11 3.87,4.05 5.04,5.84 1.15,1.82 2.03,3.73 2.64,5.77 0.6,2.04 0.91,4.18 0.91,6.43 0,3.41 -0.69,6.53 -2.03,9.38 -1.35,2.87 -3.4,5.25 -6.14,7.17 -2.71,1.92 -5.68,3.24 -8.88,4.01 -3.18,0.73 -6.46,1.1 -9.85,1.1 -2.28,0 -5.13,-0.25 -8.58,-0.71 -3.44,-0.49 -7.43,-1.33 -12,-2.53l-0.01 -0.01z"/>
   <g>
    <path class="fil0" d="M304.26 199.3c2.37,-5.21 5.17,-11.65 8.36,-19.32l9.02 -21.45c2.82,-6.62 5.15,-12.35 6.99,-17.19 2.98,0.06 5.08,0.09 6.32,0.09 2.18,0 4.3,-0.03 6.38,-0.09l4.9 17.37 10.67 35.92 1.48 4.68 -5.13 -0.09c-1.19,0 -3.18,0.03 -5.99,0.09 -0.55,-2.52 -1.41,-5.91 -2.6,-10.2 -1.18,-4.27 -2.19,-7.73 -3.01,-10.4l-18.03 0c-2.68,6.73 -5.27,13.6 -7.8,20.6l-5.6 -0.09c-1.06,0 -3.04,0.03 -5.96,0.09l-0.01 0zm22.4 -29.46l13.13 0 -5.39 -19.6 -2.78 7.12 -4.96 12.47 0 0zm63.38 19.73c-0.12,1.16 -0.3,2.46 -0.52,3.92 -0.23,1.48 -0.48,3.28 -0.73,5.46 -3.27,0.93 -6.49,1.39 -9.67,1.39 -1.85,0 -3.62,-0.22 -5.34,-0.64 -1.72,-0.42 -3.31,-1.17 -4.79,-2.28 -1.48,-1.09 -2.76,-2.52 -3.88,-4.3 -1.13,-1.78 -1.96,-3.94 -2.52,-6.47 -0.56,-2.54 -0.84,-5.14 -0.84,-7.82 0,-3.56 0.47,-6.99 1.39,-10.27 0.93,-3.29 2.28,-5.97 4.07,-8.04 1.78,-2.08 3.77,-3.51 5.96,-4.24 2.19,-0.76 4.62,-1.13 7.3,-1.13 1.49,0 3.02,0.1 4.6,0.32 1.58,0.22 3.45,0.67 5.6,1.33l0.49 9.3c-3.41,-1.45 -6.38,-2.17 -8.92,-2.17 -1.55,0 -3.03,0.32 -4.41,0.97 -1.38,0.65 -2.57,1.68 -3.57,3.07 -1,1.39 -1.71,3.02 -2.13,4.85 -0.42,1.83 -0.63,3.71 -0.63,5.62 0,2.68 0.34,5 1.01,6.97 0.68,1.96 1.84,3.48 3.48,4.55 1.64,1.07 3.51,1.61 5.62,1.61 1.03,0 2.27,-0.16 3.74,-0.46 1.48,-0.32 3.03,-0.83 4.68,-1.53l-0.01 0.01zm34.32 0c-0.12,1.16 -0.29,2.46 -0.52,3.92 -0.23,1.48 -0.48,3.28 -0.73,5.46 -3.26,0.93 -6.48,1.39 -9.67,1.39 -1.85,0 -3.62,-0.22 -5.34,-0.64 -1.72,-0.42 -3.31,-1.17 -4.78,-2.28 -1.48,-1.09 -2.76,-2.52 -3.89,-4.3 -1.12,-1.78 -1.95,-3.94 -2.51,-6.47 -0.56,-2.54 -0.84,-5.14 -0.84,-7.82 0,-3.56 0.47,-6.99 1.39,-10.27 0.93,-3.29 2.29,-5.97 4.07,-8.04 1.78,-2.08 3.77,-3.51 5.96,-4.24 2.19,-0.76 4.62,-1.13 7.3,-1.13 1.49,0 3.02,0.1 4.6,0.32 1.58,0.22 3.45,0.67 5.6,1.33l0.5 9.3c-3.41,-1.45 -6.38,-2.17 -8.92,-2.17 -1.55,0 -3.03,0.32 -4.41,0.97 -1.38,0.65 -2.57,1.68 -3.57,3.07 -1,1.39 -1.71,3.02 -2.13,4.85 -0.42,1.83 -0.63,3.71 -0.63,5.62 0,2.68 0.34,5 1.01,6.97 0.68,1.96 1.84,3.48 3.48,4.55 1.64,1.07 3.51,1.61 5.62,1.61 1.03,0 2.27,-0.16 3.74,-0.46 1.47,-0.32 3.03,-0.83 4.68,-1.53l-0.01 0.01zm25.74 -34.41c2.63,0 5.15,0.49 7.56,1.46 2.41,0.97 4.46,2.42 6.14,4.33 1.67,1.91 2.94,4.24 3.79,7 0.84,2.77 1.26,5.66 1.26,8.72 0,3.23 -0.44,6.34 -1.33,9.34 -0.89,3 -2.19,5.59 -3.88,7.78 -1.7,2.2 -3.8,3.84 -6.33,4.92 -2.53,1.09 -5.22,1.64 -8.08,1.64 -2.65,0 -5.17,-0.49 -7.56,-1.46 -2.4,-0.97 -4.44,-2.45 -6.12,-4.39 -1.7,-1.96 -2.98,-4.33 -3.86,-7.12 -0.88,-2.81 -1.33,-5.74 -1.33,-8.79 0,-3.11 0.39,-6.08 1.2,-8.91 0.8,-2.82 2.05,-5.34 3.74,-7.56 1.71,-2.2 3.88,-3.91 6.54,-5.13 2.65,-1.22 5.39,-1.83 8.22,-1.83l0 -0.01zm0 8.78c-1.99,0 -3.75,0.6 -5.33,1.8 -1.55,1.2 -2.72,2.98 -3.49,5.36 -0.76,2.38 -1.15,4.96 -1.15,7.75 0,2.45 0.32,4.64 0.94,6.56 0.63,1.91 1.66,3.46 3.09,4.65 1.42,1.19 3.11,1.78 5.08,1.78 2,0 3.77,-0.61 5.29,-1.84 1.51,-1.23 2.66,-3.04 3.42,-5.42 0.76,-2.39 1.15,-5.03 1.15,-7.89 0,-2.35 -0.29,-4.47 -0.89,-6.4 -0.6,-1.91 -1.59,-3.44 -3,-4.6 -1.4,-1.16 -3.1,-1.74 -5.11,-1.74l-0 -0.01zm59.95 35.37c-2.01,-0.06 -3.56,-0.09 -4.62,-0.09 -1.34,0 -2.88,0.03 -4.59,0.09l0.06 -7.06c-0.64,1.2 -1.21,2.16 -1.69,2.88 -0.48,0.72 -1.1,1.43 -1.88,2.13 -0.78,0.69 -1.62,1.24 -2.53,1.65 -0.91,0.42 -1.96,0.76 -3.14,1.03 -1.18,0.28 -2.42,0.4 -3.75,0.4 -2.55,0 -4.77,-0.47 -6.67,-1.38 -1.89,-0.93 -3.4,-2.33 -4.51,-4.2 -1.11,-1.87 -1.66,-4.55 -1.66,-8.04l0 -0.9 0.59 -10.95 0.55 -14.44c0.02,-1.16 0.03,-2.61 0.03,-4.33 2.17,0.06 3.85,0.09 5.08,0.09 1.3,0 2.87,-0.03 4.71,-0.09l-1.13 19.36c-0.07,1.51 -0.13,2.77 -0.17,3.8 -0.03,1.04 -0.05,1.79 -0.05,2.23 0,2.05 0.25,3.76 0.73,5.11 0.48,1.36 1.34,2.39 2.55,3.1 1.21,0.71 2.52,1.07 3.9,1.07 1.31,0 2.56,-0.32 3.74,-0.94 1.06,-0.56 1.98,-1.36 2.74,-2.38 0.76,-1.03 1.4,-2.41 1.92,-4.14 0.39,-1.25 0.69,-2.98 0.89,-5.19 0.17,-1.56 0.3,-4.26 0.45,-8.05 0.2,-4.59 0.35,-9.26 0.42,-13.98 2.27,0.06 4.01,0.09 5.2,0.09 1.36,0 2.88,-0.03 4.57,-0.09 -0.27,4.05 -0.56,9.11 -0.85,15.18 -0.3,6.08 -0.5,11.1 -0.62,15.03 -0.12,3.95 -0.21,8.27 -0.27,12.98l-0.01 0.01zm8.27 0c0.54,-6.43 0.99,-13.65 1.35,-21.66 0.36,-8.02 0.56,-15.19 0.61,-21.54 2.11,0.06 3.78,0.09 5.04,0.09 1.49,0 3.05,-0.03 4.73,-0.09l-0.36 7.27c0.71,-1.25 1.33,-2.23 1.86,-2.97 0.54,-0.74 1.23,-1.45 2.06,-2.16 0.83,-0.71 1.72,-1.27 2.67,-1.69 0.95,-0.43 2,-0.76 3.19,-1.02 1.17,-0.24 2.4,-0.38 3.68,-0.38 2.04,0 3.98,0.32 5.84,0.96 1.85,0.63 3.36,1.65 4.49,3.02 1.15,1.39 1.89,2.9 2.26,4.55 0.36,1.64 0.55,3.37 0.55,5.21 0,0.76 -0.03,1.97 -0.1,3.64l-0.73 18.54c-0.1,2.58 -0.15,5.32 -0.17,8.23 -1.8,-0.06 -3.34,-0.09 -4.61,-0.09 -1.73,0 -3.48,0.03 -5.23,0.09 0.17,-2.46 0.39,-6.75 0.66,-12.88 0.27,-6.11 0.39,-10.17 0.39,-12.15 0,-2.23 -0.28,-4.03 -0.86,-5.39 -0.56,-1.36 -1.45,-2.4 -2.64,-3.11 -1.2,-0.71 -2.49,-1.06 -3.88,-1.06 -1.37,0 -2.65,0.32 -3.84,0.97 -1.18,0.65 -2.21,1.61 -3.08,2.85 -0.91,1.28 -1.62,2.84 -2.12,4.71 -0.52,1.99 -0.91,5.26 -1.17,9.82 -0.23,4.04 -0.43,9.44 -0.59,16.23 -1.75,-0.06 -3.33,-0.09 -4.75,-0.09 -1.44,0 -3.19,0.03 -5.23,0.09l-0.01 0.01zm66.63 -8.87c-0.28,1.56 -0.72,4.46 -1.33,8.69 -1.92,0.53 -3.43,0.87 -4.53,1.01 -1.1,0.13 -2.12,0.2 -3.09,0.2 -1.69,0 -3.21,-0.2 -4.54,-0.6 -1.33,-0.4 -2.43,-1.1 -3.31,-2.1 -0.86,-1.01 -1.45,-2.19 -1.75,-3.53 -0.32,-1.35 -0.47,-2.74 -0.47,-4.19 0,-0.38 0.01,-0.87 0.03,-1.49 0.02,-0.62 0.12,-2.64 0.28,-6.04l0.81 -17.69 -4.99 0c0.12,-1.69 0.22,-4.42 0.32,-8.17l5.22 0c0.14,-1.64 0.28,-4.42 0.42,-8.35l4.04 -0.97c0.84,-0.19 2.47,-0.65 4.89,-1.38 -0.17,3.8 -0.26,7.36 -0.28,10.69l8.71 0c-0.17,3.81 -0.23,6.53 -0.23,8.17l-8.74 0c-0.48,11.55 -0.73,18.24 -0.73,20.05 0,1.75 0.17,3.11 0.47,4.08 0.3,0.97 0.81,1.66 1.5,2.08 0.68,0.42 1.42,0.64 2.2,0.64 0.57,0 1.17,-0.06 1.8,-0.17 0.63,-0.12 1.73,-0.43 3.31,-0.96zm6.49 -41.62c0.1,-2.93 0.14,-5.16 0.14,-6.72l0 -1.36c2.08,0.06 3.78,0.09 5.09,0.09 1.79,0 3.45,-0.03 4.98,-0.09 -0.07,0.71 -0.12,1.52 -0.14,2.42l-0.17 5.67c-1.73,-0.06 -3.34,-0.09 -4.81,-0.09 -1.46,0 -3.16,0.03 -5.09,0.09l-0 -0.01zm-1.82 50.49c0.34,-4.24 0.59,-7.81 0.73,-10.66 0.22,-4.53 0.42,-9.75 0.6,-15.67 0.16,-5.91 0.29,-11.55 0.35,-16.86 2.25,0.06 3.92,0.09 5.04,0.09 1.03,0 2.7,-0.03 5,-0.09 -0.31,4.92 -0.57,9.63 -0.76,14.09 -0.2,4.47 -0.34,9.6 -0.42,15.38 -0.09,5.78 -0.14,10.34 -0.14,13.71 -2.08,-0.06 -3.75,-0.09 -5.01,-0.09 -1.19,0 -3,0.03 -5.4,0.09l0.01 0zm18.44 0c0.54,-6.43 0.99,-13.65 1.35,-21.66 0.36,-8.02 0.56,-15.19 0.61,-21.54 2.11,0.06 3.78,0.09 5.04,0.09 1.49,0 3.05,-0.03 4.73,-0.09l-0.36 7.27c0.71,-1.25 1.33,-2.23 1.86,-2.97 0.54,-0.74 1.23,-1.45 2.06,-2.16 0.83,-0.71 1.72,-1.27 2.67,-1.69 0.95,-0.43 2,-0.76 3.19,-1.02 1.17,-0.24 2.4,-0.38 3.68,-0.38 2.04,0 3.98,0.32 5.84,0.96 1.85,0.63 3.36,1.65 4.5,3.02 1.15,1.39 1.89,2.9 2.25,4.55 0.36,1.64 0.55,3.37 0.55,5.21 0,0.76 -0.03,1.97 -0.1,3.64l-0.73 18.54c-0.09,2.58 -0.15,5.32 -0.17,8.23 -1.8,-0.06 -3.34,-0.09 -4.61,-0.09 -1.73,0 -3.48,0.03 -5.23,0.09 0.17,-2.46 0.39,-6.75 0.66,-12.88 0.27,-6.11 0.39,-10.17 0.39,-12.15 0,-2.23 -0.28,-4.03 -0.86,-5.39 -0.56,-1.36 -1.45,-2.4 -2.64,-3.11 -1.21,-0.71 -2.49,-1.06 -3.88,-1.06 -1.37,0 -2.65,0.32 -3.84,0.97 -1.18,0.65 -2.21,1.61 -3.08,2.85 -0.91,1.28 -1.62,2.84 -2.12,4.71 -0.52,1.99 -0.91,5.26 -1.17,9.82 -0.23,4.04 -0.43,9.44 -0.59,16.23 -1.75,-0.06 -3.33,-0.09 -4.75,-0.09 -1.44,0 -3.19,0.03 -5.23,0.09l-0.02 0.01zm47.68 8.95c5.13,2.08 9.59,3.13 13.36,3.13 1.44,0 2.8,-0.22 4.07,-0.65 1.27,-0.45 2.35,-1.07 3.22,-1.91 0.86,-0.83 1.54,-1.96 2.02,-3.39 0.48,-1.42 0.8,-3.07 0.96,-4.95 0.15,-1.88 0.28,-4.72 0.37,-8.53 -0.89,1.49 -1.69,2.67 -2.4,3.49 -0.71,0.84 -1.55,1.59 -2.55,2.24 -1,0.67 -2.16,1.2 -3.48,1.63 -1.33,0.4 -2.73,0.61 -4.19,0.61 -2.01,0 -3.92,-0.39 -5.72,-1.16 -1.8,-0.78 -3.41,-2.01 -4.81,-3.68 -1.42,-1.66 -2.48,-3.77 -3.21,-6.29 -0.73,-2.54 -1.1,-5.17 -1.1,-7.91 0,-3.92 0.6,-7.65 1.8,-11.13 1.19,-3.51 2.95,-6.39 5.28,-8.65 2.32,-2.26 4.78,-3.83 7.43,-4.67 2.63,-0.86 5.57,-1.28 8.78,-1.28 1.78,0 3.8,0.13 6.06,0.39 2.26,0.27 5.25,0.8 8.97,1.61l-0.78 13.45 -0.73 16.85 -0.27 15.23c-0.07,1.72 -0.24,3.38 -0.51,4.97 -0.28,1.61 -0.71,3.04 -1.31,4.33 -0.59,1.29 -1.35,2.42 -2.26,3.42 -0.91,0.98 -1.94,1.78 -3.1,2.39 -1.15,0.6 -2.57,1.12 -4.28,1.5 -1.69,0.39 -3.52,0.6 -5.46,0.6 -2.08,0 -4.44,-0.17 -7.09,-0.51 -2.65,-0.35 -5.54,-0.99 -8.67,-1.92l-0.42 -9.21 -0 0.01zm24.97 -43.63c-1.99,-0.47 -3.83,-0.69 -5.51,-0.69 -2.96,0 -5.42,0.67 -7.36,2.01 -1.94,1.33 -3.44,3.29 -4.48,5.85 -1.06,2.58 -1.58,5.3 -1.58,8.17 0,2.12 0.32,4.08 0.96,5.91 0.64,1.81 1.64,3.19 2.99,4.13 1.36,0.93 2.86,1.39 4.51,1.39 1.16,0 2.25,-0.23 3.26,-0.68 1.02,-0.45 1.94,-1.14 2.76,-2.07 0.82,-0.94 1.55,-2.1 2.18,-3.49 0.62,-1.38 1.06,-2.94 1.33,-4.68 0.26,-1.74 0.46,-3.93 0.6,-6.53 0.14,-2.62 0.25,-5.72 0.34,-9.31l-0 0zm68.21 6.61c1.8,0.06 3.23,0.09 4.3,0.09 1.07,0 2.45,-0.03 4.13,-0.09 0.02,6.36 -1.28,12.28 -3.88,17.77 1.44,2 2.85,3.84 4.2,5.55 1.35,1.72 2.58,3.33 3.68,4.84 -2.42,-0.06 -4.31,-0.09 -5.66,-0.09 -1.79,0 -3.59,0 -5.43,0l-3.9 -5.06c-0.87,0.83 -1.62,1.49 -2.24,2.01 -0.63,0.51 -1.39,1.03 -2.29,1.56 -0.9,0.55 -1.86,1 -2.86,1.38 -1,0.36 -2.07,0.65 -3.18,0.84 -1.13,0.2 -2.33,0.3 -3.63,0.3 -3.36,0 -6.39,-0.68 -9.09,-2.05 -2.7,-1.38 -4.75,-3.43 -6.16,-6.16 -1.4,-2.74 -2.11,-5.7 -2.11,-8.89 0,-2.26 0.34,-4.4 1.03,-6.42 0.68,-2 1.83,-3.95 3.45,-5.83 1.62,-1.88 4.12,-3.95 7.51,-6.21 -1.18,-2.26 -2.04,-4.24 -2.54,-5.94 -0.5,-1.69 -0.75,-3.32 -0.75,-4.88 0,-1.87 0.35,-3.68 1.04,-5.44 0.7,-1.77 1.72,-3.3 3.06,-4.6 1.35,-1.3 2.85,-2.21 4.51,-2.74 1.66,-0.52 3.42,-0.78 5.29,-0.78 2.95,0 6.26,0.58 9.94,1.74l0.18 9.47c-1.55,-0.93 -2.85,-1.55 -3.92,-1.87 -1.06,-0.32 -2.11,-0.48 -3.13,-0.48 -1.33,0 -2.54,0.29 -3.65,0.87 -1.1,0.58 -1.96,1.43 -2.53,2.55 -0.59,1.12 -0.88,2.29 -0.88,3.53 0,0.68 0.07,1.39 0.22,2.15 0.15,0.74 0.43,1.62 0.84,2.65 0.57,1.4 1.4,3.04 2.51,4.91 1.32,2.23 2.7,4.33 4.14,6.32 0.35,0.51 1.58,2.1 3.71,4.8 0.96,1.22 1.87,2.42 2.74,3.61 0.34,-0.97 0.57,-1.78 0.71,-2.45 0.14,-0.67 0.28,-1.61 0.39,-2.82 0.12,-1.22 0.2,-2.59 0.24,-4.11l0 -0.01zm-7.23 16.1l-4.48 -5.98c-1.28,-1.69 -2.35,-3.16 -3.22,-4.39 -0.88,-1.23 -1.88,-2.72 -3.05,-4.47 -1.55,1.22 -2.73,2.2 -3.48,2.95 -0.75,0.76 -1.39,1.56 -1.89,2.46 -0.52,0.9 -0.86,1.75 -1.06,2.59 -0.2,0.84 -0.29,1.68 -0.29,2.54 0,1.66 0.39,3.19 1.15,4.56 0.76,1.38 1.83,2.42 3.21,3.15 1.38,0.73 2.94,1.09 4.67,1.09 0.95,0 1.87,-0.12 2.76,-0.36 0.89,-0.25 1.67,-0.56 2.38,-0.99 0.69,-0.4 1.28,-0.86 1.74,-1.32 0.46,-0.48 1,-1.09 1.58,-1.83l-0 -0zm42.68 11.96c0.57,-9.73 1.03,-19.73 1.39,-29.95 0.35,-10.24 0.52,-18.06 0.52,-23.46l-0.03 -4.55 5.72 0.09c0.32,0 2.07,-0.03 5.24,-0.09 -0.96,14.89 -1.55,34.21 -1.81,57.97l-5.05 -0.09c-0.85,0 -2.85,0.03 -5.98,0.09l0 -0zm19.66 0c0.54,-6.43 0.98,-13.65 1.35,-21.66 0.36,-8.02 0.56,-15.19 0.61,-21.54 2.11,0.06 3.77,0.09 5.04,0.09 1.49,0 3.06,-0.03 4.73,-0.09l-0.36 7.27c0.71,-1.25 1.33,-2.23 1.86,-2.97 0.54,-0.74 1.23,-1.45 2.06,-2.16 0.83,-0.71 1.72,-1.27 2.67,-1.69 0.95,-0.43 2,-0.76 3.19,-1.02 1.17,-0.24 2.4,-0.38 3.67,-0.38 2.04,0 3.98,0.32 5.84,0.96 1.85,0.63 3.36,1.65 4.49,3.02 1.15,1.39 1.89,2.9 2.26,4.55 0.36,1.64 0.55,3.37 0.55,5.21 0,0.76 -0.03,1.97 -0.1,3.64l-0.73 18.54c-0.1,2.58 -0.15,5.32 -0.17,8.23 -1.8,-0.06 -3.34,-0.09 -4.61,-0.09 -1.73,0 -3.48,0.03 -5.23,0.09 0.17,-2.46 0.4,-6.75 0.66,-12.88 0.27,-6.11 0.4,-10.17 0.4,-12.15 0,-2.23 -0.28,-4.03 -0.86,-5.39 -0.56,-1.36 -1.45,-2.4 -2.65,-3.11 -1.2,-0.71 -2.49,-1.06 -3.88,-1.06 -1.37,0 -2.64,0.32 -3.84,0.97 -1.18,0.65 -2.21,1.61 -3.08,2.85 -0.91,1.28 -1.62,2.84 -2.12,4.71 -0.52,1.99 -0.91,5.26 -1.17,9.82 -0.23,4.04 -0.43,9.44 -0.59,16.23 -1.75,-0.06 -3.34,-0.09 -4.75,-0.09 -1.44,0 -3.19,0.03 -5.23,0.09l-0.01 0.01zm54.59 0c-1.51,-5.96 -5.57,-20.37 -12.18,-43.19 2.01,0.06 3.74,0.09 5.21,0.09 1.54,0 3.14,-0.03 4.76,-0.09l8.04 32.49 1.1 -3.71 7.72 -24.3c0.36,-1.15 0.82,-2.64 1.37,-4.47 1.87,0.06 3.53,0.09 5,0.09 1.49,0 3.17,-0.03 5.06,-0.09l-5.58 14.99 -8.1 22.73 -1.82 5.47c-2.05,-0.06 -3.77,-0.09 -5.17,-0.09 -1.46,0 -3.28,0.03 -5.42,0.09l0.01 0zm59.64 -9.56c-0.3,1.66 -0.72,4.65 -1.26,8.95 -2.47,0.65 -4.56,1.09 -6.25,1.32 -1.7,0.22 -3.41,0.33 -5.13,0.33 -3,0 -5.69,-0.36 -8.06,-1.1 -2.37,-0.74 -4.45,-2.08 -6.24,-4.06 -1.78,-1.96 -3.1,-4.37 -3.94,-7.23 -0.85,-2.85 -1.27,-5.85 -1.27,-8.98 0,-3.48 0.49,-6.85 1.47,-10.11 0.98,-3.28 2.36,-5.94 4.13,-8.01 1.78,-2.08 3.81,-3.55 6.06,-4.42 2.27,-0.86 4.63,-1.29 7.1,-1.29 2.34,0 4.55,0.36 6.66,1.09 2.11,0.73 3.87,1.9 5.3,3.55 1.43,1.64 2.53,3.61 3.3,5.92 0.76,2.31 1.15,4.87 1.15,7.71 0,1.33 -0.12,2.69 -0.34,4.11l-25.14 0.04c-0.05,1.04 -0.07,1.88 -0.07,2.49 0,1.9 0.27,3.64 0.8,5.21 0.52,1.58 1.29,2.92 2.29,4.03 1.02,1.1 2.21,1.91 3.61,2.43 1.39,0.52 2.76,0.79 4.12,0.79 1.58,0 3.29,-0.22 5.14,-0.64 1.84,-0.42 4.04,-1.13 6.58,-2.15l0 0.01zm-22.19 -17.03l16.07 0.04c0,-1.38 -0.03,-2.39 -0.1,-3.04 -0.07,-0.67 -0.22,-1.42 -0.46,-2.26 -0.25,-0.84 -0.57,-1.59 -0.98,-2.23 -0.41,-0.64 -0.89,-1.19 -1.44,-1.61 -0.55,-0.43 -1.19,-0.75 -1.91,-0.99 -0.73,-0.23 -1.5,-0.35 -2.32,-0.35 -0.97,0 -1.91,0.19 -2.81,0.56 -0.9,0.36 -1.73,0.91 -2.49,1.63 -0.75,0.71 -1.37,1.52 -1.84,2.4 -0.47,0.88 -0.82,1.74 -1.04,2.55 -0.23,0.83 -0.46,1.91 -0.69,3.29l0.01 -0zm30.08 26.6c0.54,-6.43 0.99,-13.65 1.35,-21.66 0.36,-8.02 0.56,-15.19 0.61,-21.54 2.11,0.06 3.78,0.09 5.04,0.09 1.49,0 3.05,-0.03 4.73,-0.09l-0.36 7.27c0.71,-1.25 1.33,-2.23 1.86,-2.97 0.53,-0.74 1.22,-1.45 2.06,-2.16 0.83,-0.71 1.72,-1.27 2.67,-1.69 0.95,-0.43 2,-0.76 3.19,-1.02 1.17,-0.24 2.4,-0.38 3.68,-0.38 2.04,0 3.98,0.32 5.84,0.96 1.85,0.63 3.36,1.65 4.49,3.02 1.15,1.39 1.89,2.9 2.26,4.55 0.36,1.64 0.55,3.37 0.55,5.21 0,0.76 -0.03,1.97 -0.1,3.64l-0.73 18.54c-0.1,2.58 -0.15,5.32 -0.17,8.23 -1.8,-0.06 -3.34,-0.09 -4.61,-0.09 -1.73,0 -3.48,0.03 -5.23,0.09 0.17,-2.46 0.39,-6.75 0.66,-12.88 0.27,-6.11 0.4,-10.17 0.4,-12.15 0,-2.23 -0.28,-4.03 -0.86,-5.39 -0.56,-1.36 -1.45,-2.4 -2.64,-3.11 -1.2,-0.71 -2.49,-1.06 -3.88,-1.06 -1.37,0 -2.65,0.32 -3.84,0.97 -1.18,0.65 -2.21,1.61 -3.08,2.85 -0.91,1.28 -1.62,2.84 -2.12,4.71 -0.52,1.99 -0.91,5.26 -1.17,9.82 -0.23,4.04 -0.43,9.44 -0.59,16.23 -1.75,-0.06 -3.34,-0.09 -4.75,-0.09 -1.44,0 -3.19,0.03 -5.23,0.09l-0.02 0.01zm66.63 -8.87c-0.28,1.56 -0.73,4.46 -1.33,8.69 -1.92,0.53 -3.43,0.87 -4.53,1.01 -1.1,0.13 -2.12,0.2 -3.09,0.2 -1.69,0 -3.21,-0.2 -4.54,-0.6 -1.33,-0.4 -2.43,-1.1 -3.31,-2.1 -0.86,-1.01 -1.45,-2.19 -1.75,-3.53 -0.32,-1.35 -0.47,-2.74 -0.47,-4.19 0,-0.38 0.01,-0.87 0.04,-1.49 0.02,-0.62 0.12,-2.64 0.28,-6.04l0.81 -17.69 -4.99 0c0.12,-1.69 0.22,-4.42 0.32,-8.17l5.22 0c0.14,-1.64 0.28,-4.42 0.42,-8.35l4.04 -0.97c0.84,-0.19 2.47,-0.65 4.89,-1.38 -0.17,3.8 -0.26,7.36 -0.28,10.69l8.71 0c-0.17,3.81 -0.23,6.53 -0.23,8.17l-8.74 0c-0.48,11.55 -0.73,18.24 -0.73,20.05 0,1.75 0.16,3.11 0.47,4.08 0.3,0.97 0.81,1.66 1.5,2.08 0.68,0.42 1.42,0.64 2.2,0.64 0.57,0 1.17,-0.06 1.8,-0.17 0.63,-0.12 1.73,-0.43 3.31,-0.96l-0 0zm23.4 -35.28c2.63,0 5.15,0.49 7.56,1.46 2.41,0.97 4.46,2.42 6.14,4.33 1.67,1.91 2.94,4.24 3.79,7 0.84,2.77 1.26,5.66 1.26,8.72 0,3.23 -0.45,6.34 -1.33,9.34 -0.89,3 -2.19,5.59 -3.87,7.78 -1.7,2.2 -3.81,3.84 -6.33,4.92 -2.53,1.09 -5.22,1.64 -8.08,1.64 -2.66,0 -5.17,-0.49 -7.56,-1.46 -2.4,-0.97 -4.44,-2.45 -6.12,-4.39 -1.7,-1.96 -2.98,-4.33 -3.86,-7.12 -0.88,-2.81 -1.32,-5.74 -1.32,-8.79 0,-3.11 0.39,-6.08 1.21,-8.91 0.8,-2.82 2.05,-5.34 3.74,-7.56 1.71,-2.2 3.88,-3.91 6.54,-5.13 2.65,-1.22 5.4,-1.83 8.23,-1.83l0 -0.01zm0 8.78c-1.99,0 -3.76,0.6 -5.32,1.8 -1.56,1.2 -2.73,2.98 -3.49,5.36 -0.76,2.38 -1.15,4.96 -1.15,7.75 0,2.45 0.32,4.64 0.93,6.56 0.63,1.91 1.66,3.46 3.09,4.65 1.42,1.19 3.11,1.78 5.08,1.78 2,0 3.77,-0.61 5.29,-1.84 1.51,-1.23 2.66,-3.04 3.42,-5.42 0.76,-2.39 1.15,-5.03 1.15,-7.89 0,-2.35 -0.3,-4.47 -0.89,-6.4 -0.6,-1.91 -1.59,-3.44 -2.99,-4.6 -1.4,-1.16 -3.1,-1.74 -5.11,-1.74l0 -0.01zm24.56 35.37l0.99 -20.18 0.27 -11.72c0.05,-2.4 0.07,-4.82 0.07,-7.26 0,-0.43 -0.02,-1.78 -0.07,-4.04 2.13,0.06 3.7,0.09 4.71,0.09 1.17,0 2.71,-0.03 4.64,-0.09l-0.17 6.04c0.86,-1.52 1.62,-2.67 2.23,-3.42 0.62,-0.74 1.32,-1.39 2.08,-1.92 0.77,-0.54 1.63,-0.94 2.56,-1.23 0.95,-0.28 1.9,-0.42 2.9,-0.42 0.91,0 1.86,0.14 2.82,0.43 0,2.65 0.1,6.01 0.28,10.08 -1.35,-0.52 -2.57,-0.79 -3.68,-0.79 -1.33,0 -2.5,0.25 -3.52,0.74 -1.02,0.5 -1.94,1.24 -2.75,2.26 -0.82,1 -1.49,2.25 -2.01,3.71 -0.43,1.2 -0.76,2.74 -0.96,4.64 -0.19,1.48 -0.34,3.98 -0.47,7.55 -0.13,3.56 -0.19,7.07 -0.19,10.53 0,1.32 0.03,2.98 0.1,5 -1.73,-0.06 -3.32,-0.09 -4.77,-0.09 -1.42,0 -3.1,0.03 -5.06,0.09l0 0.01z"/>
    <path class="fil0" d="M1063.72 218.76c-0.41,-4.23 -0.74,-7.27 -0.99,-9.13 2.2,1.28 4.27,1.91 6.21,1.91 0.59,0 1.19,-0.09 1.82,-0.28 0.62,-0.19 1.19,-0.45 1.72,-0.78 0.34,-0.23 0.69,-0.56 1.04,-0.99 0.35,-0.42 0.84,-1.2 1.46,-2.35 0.61,-1.13 1.15,-2.24 1.61,-3.36 0.37,-0.94 0.75,-2.14 1.13,-3.57l-7.11 -25.81 -5.21 -18.31c2.4,0.06 4.13,0.09 5.19,0.09 1.21,0 2.81,-0.03 4.77,-0.09 0.48,2.35 0.93,4.37 1.33,6.09l3.26 13.3c1.01,4.1 1.72,7.17 2.16,9.24 0.27,1.35 0.59,3.15 0.96,5.37 0.69,-2.56 1.29,-4.65 1.79,-6.27 0.89,-2.92 2.14,-6.85 3.74,-11.78l3.35 -10.13c0.59,-1.8 1.19,-3.75 1.82,-5.83 2.06,0.06 3.61,0.09 4.68,0.09 0.98,0 2.62,-0.03 4.92,-0.09l-13.22 36.63 -5.73 16.17c-0.81,2.1 -1.57,3.72 -2.31,4.88 -0.6,0.99 -1.24,1.84 -1.96,2.55 -0.69,0.68 -1.42,1.25 -2.2,1.69 -0.99,0.56 -2.05,1.01 -3.19,1.36 -1.3,0.33 -2.62,0.51 -3.94,0.51 -0.76,0 -1.81,-0.09 -3.16,-0.26 -1.35,-0.17 -2.67,-0.46 -3.95,-0.87l0 0.02zm59.13 -20.68c-0.19,-4.3 -0.43,-7.81 -0.73,-10.52 4.48,2.49 8.54,3.74 12.19,3.74 1.46,0 2.83,-0.28 4.1,-0.83 1.28,-0.55 2.21,-1.32 2.81,-2.33 0.61,-1 0.91,-2.12 0.91,-3.36 0,-0.96 -0.14,-1.81 -0.43,-2.58 -0.43,-1.04 -1.16,-2.13 -2.18,-3.26 -1.3,-1.55 -3.64,-4.11 -6.99,-7.68 -1.6,-1.72 -2.7,-2.95 -3.31,-3.69 -1.37,-1.61 -2.42,-3.05 -3.15,-4.34 -0.73,-1.29 -1.26,-2.57 -1.58,-3.84 -0.31,-1.27 -0.48,-2.64 -0.48,-4.08 0,-2.65 0.6,-5.16 1.8,-7.49 1.19,-2.33 2.99,-4.16 5.38,-5.47 2.39,-1.32 5.4,-1.97 9.04,-1.97 3.26,0 6.95,0.49 11.03,1.48 0.12,2.94 0.35,6.3 0.69,10.08 -3.55,-1.68 -6.84,-2.52 -9.85,-2.52 -2.23,0 -4.06,0.62 -5.49,1.88 -1.42,1.26 -2.14,2.72 -2.14,4.4 0,0.45 0.04,0.93 0.15,1.42 0.09,0.49 0.24,0.97 0.44,1.43 0.2,0.48 0.55,1.09 1.05,1.83 0.52,0.76 1.25,1.64 2.23,2.64 0.98,1 1.82,1.83 2.5,2.45l4.23 4.75c1.08,1.1 2.04,2.17 2.88,3.21 0.84,1.06 1.57,2.06 2.16,3.01 0.61,0.97 1.08,1.88 1.42,2.77 0.35,0.87 0.61,1.77 0.77,2.69 0.18,0.91 0.26,1.88 0.26,2.91 0,2.38 -0.44,4.62 -1.33,6.72 -0.89,2.12 -2.18,3.84 -3.84,5.2 -1.67,1.36 -3.5,2.3 -5.49,2.82 -1.99,0.52 -4.08,0.78 -6.31,0.78 -1.46,0 -3.16,-0.16 -5.1,-0.47 -1.94,-0.32 -4.51,-0.91 -7.68,-1.79l-0.01 0zm55.33 -42.93c2.63,0 5.15,0.49 7.56,1.46 2.41,0.97 4.46,2.42 6.14,4.33 1.67,1.91 2.94,4.24 3.79,7 0.84,2.77 1.26,5.66 1.26,8.72 0,3.23 -0.44,6.34 -1.33,9.34 -0.89,3 -2.19,5.59 -3.88,7.78 -1.7,2.2 -3.8,3.84 -6.33,4.92 -2.53,1.09 -5.22,1.64 -8.08,1.64 -2.66,0 -5.17,-0.49 -7.56,-1.46 -2.4,-0.97 -4.43,-2.45 -6.12,-4.39 -1.7,-1.96 -2.98,-4.33 -3.86,-7.12 -0.88,-2.81 -1.32,-5.74 -1.32,-8.79 0,-3.11 0.39,-6.08 1.2,-8.91 0.8,-2.82 2.05,-5.34 3.74,-7.56 1.71,-2.2 3.88,-3.91 6.54,-5.13 2.64,-1.22 5.39,-1.83 8.22,-1.83l0 -0.01zm0 8.78c-1.99,0 -3.75,0.6 -5.32,1.8 -1.55,1.2 -2.73,2.98 -3.49,5.36 -0.76,2.38 -1.15,4.96 -1.15,7.75 0,2.45 0.32,4.64 0.93,6.56 0.63,1.91 1.66,3.46 3.09,4.65 1.42,1.19 3.11,1.78 5.08,1.78 2,0 3.77,-0.61 5.29,-1.84 1.51,-1.23 2.65,-3.04 3.41,-5.42 0.76,-2.39 1.15,-5.03 1.15,-7.89 0,-2.35 -0.29,-4.47 -0.89,-6.4 -0.6,-1.91 -1.59,-3.44 -3,-4.6 -1.4,-1.16 -3.1,-1.74 -5.11,-1.74l-0 -0.01zm25.9 35.37l0.41 -6.99 1 -27.59 -4.22 0c0.07,-0.85 0.14,-2.23 0.22,-4.16 0.07,-1.91 0.13,-3.3 0.15,-4.18l4.57 0 0.03 -1.69c0,-3.03 0.1,-5.33 0.32,-6.92 0.2,-1.61 0.59,-2.91 1.15,-3.93 0.56,-1.01 1.36,-1.89 2.38,-2.65 1.02,-0.75 2.14,-1.26 3.36,-1.52 1.22,-0.28 2.47,-0.4 3.74,-0.4 2.62,0 5.38,0.47 8.3,1.39 0.06,3.17 0.18,5.9 0.35,8.17 -2.2,-0.99 -4.2,-1.48 -6.02,-1.48 -0.7,0 -1.35,0.1 -1.96,0.32 -0.6,0.2 -1.07,0.49 -1.46,0.87 -0.37,0.36 -0.69,0.84 -0.93,1.43 -0.26,0.58 -0.42,1.29 -0.51,2.08 -0.09,0.8 -0.14,1.72 -0.14,2.77l-0.03 1.56 8.81 0c-0.14,1.96 -0.28,4.73 -0.41,8.34l-8.28 0c-0.42,11.26 -0.75,22.78 -0.97,34.59 -2.08,-0.06 -3.73,-0.09 -4.96,-0.09 -1.26,0 -2.89,0.03 -4.89,0.09l-0.01 -0zm44.29 -8.87c-0.28,1.56 -0.73,4.46 -1.33,8.69 -1.92,0.53 -3.43,0.87 -4.53,1.01 -1.1,0.13 -2.12,0.2 -3.09,0.2 -1.69,0 -3.21,-0.2 -4.54,-0.6 -1.33,-0.4 -2.43,-1.1 -3.31,-2.1 -0.86,-1.01 -1.45,-2.19 -1.75,-3.53 -0.32,-1.35 -0.47,-2.74 -0.47,-4.19 0,-0.38 0.01,-0.87 0.03,-1.49 0.02,-0.62 0.12,-2.64 0.28,-6.04l0.81 -17.69 -4.99 0c0.12,-1.69 0.22,-4.42 0.32,-8.17l5.22 0c0.14,-1.64 0.28,-4.42 0.43,-8.35l4.04 -0.97c0.84,-0.19 2.47,-0.65 4.89,-1.38 -0.17,3.8 -0.26,7.36 -0.28,10.69l8.71 0c-0.17,3.81 -0.23,6.53 -0.23,8.17l-8.74 0c-0.48,11.55 -0.73,18.24 -0.73,20.05 0,1.75 0.16,3.11 0.47,4.08 0.3,0.97 0.81,1.66 1.5,2.08 0.68,0.42 1.42,0.64 2.2,0.64 0.57,0 1.17,-0.06 1.8,-0.17 0.63,-0.12 1.73,-0.43 3.31,-0.96l0.01 0zm13.81 8.87l-4.01 -15.08 -5.77 -20.73 -2.16 -7.39c1.75,0.06 3.36,0.09 4.82,0.09 1.39,0 2.86,-0.03 4.38,-0.09l7.94 31.93 9.07 -31.93c1.71,0.06 3.35,0.09 4.9,0.09 1.64,0 3.21,-0.03 4.69,-0.09l5.94 28.07c0.07,0.42 0.32,1.66 0.73,3.74l0.79 -2.8c0.03,-0.06 0.23,-0.73 0.65,-2l5.26 -16.7 3.12 -10.31c1.74,0.06 3.25,0.09 4.51,0.09 1.03,0 2.58,-0.03 4.68,-0.09l-9.42 26.66c-2.02,5.72 -3.9,11.23 -5.65,16.52 -1.92,-0.06 -3.42,-0.09 -4.52,-0.09 -1.15,0 -2.88,0.03 -5.21,0.09l-6.29 -30.93c-0.33,1.12 -1.02,3.46 -2.05,7.06l-6.95 23.87c-1.94,-0.06 -3.4,-0.09 -4.41,-0.09 -1.13,0 -2.81,0.03 -5.04,0.09l0.01 0.01zm54.51 -33.81c0.33,-2.01 0.54,-3.42 0.62,-4.23 0.08,-0.81 0.22,-2.03 0.43,-3.68 3.11,-0.9 5.85,-1.52 8.24,-1.88 2.38,-0.36 4.67,-0.55 6.9,-0.55 2.52,0 4.83,0.36 6.92,1.09 2.11,0.71 3.75,1.87 4.95,3.45 1.18,1.59 1.78,3.87 1.78,6.84 0,1.61 -0.17,5.71 -0.54,12.31 -0.36,6.6 -0.57,13.43 -0.64,20.47 -1.74,-0.06 -3.33,-0.09 -4.8,-0.09 -1.39,0 -3.03,0.03 -4.9,0.09 0.3,-3.42 0.55,-7.37 0.73,-11.86l0.46 -10.56c-0.87,0.71 -1.53,1.2 -2,1.49 -0.46,0.28 -0.97,0.54 -1.55,0.78 -0.57,0.23 -1.59,0.61 -3.03,1.1 -1.45,0.5 -2.61,0.93 -3.49,1.29 -0.86,0.38 -1.66,0.8 -2.36,1.26 -0.69,0.47 -1.29,0.99 -1.76,1.56 -0.48,0.58 -0.83,1.19 -1.06,1.83 -0.22,0.64 -0.33,1.33 -0.33,2.07 0,1.19 0.28,2.21 0.84,3.07 0.56,0.87 1.28,1.46 2.12,1.81 0.85,0.33 1.86,0.51 3.01,0.51 0.73,0 1.51,-0.07 2.33,-0.22 0.81,-0.14 1.91,-0.5 3.29,-1.09 -0.48,1.61 -1.04,4.01 -1.69,7.22 -1.63,0.35 -2.91,0.56 -3.89,0.65 -0.96,0.09 -1.85,0.13 -2.68,0.13 -2.88,0 -5.25,-0.48 -7.1,-1.45 -1.86,-0.96 -3.23,-2.48 -4.1,-4.58 -0.88,-2.08 -1.33,-4.2 -1.33,-6.31 0,-1.22 0.18,-2.42 0.52,-3.61 0.34,-1.19 0.84,-2.28 1.51,-3.26 0.67,-1 1.52,-1.96 2.58,-2.87 1.05,-0.91 2.57,-1.81 4.57,-2.67 1.99,-0.87 4.62,-1.74 7.9,-2.62 0.86,-0.22 1.76,-0.49 2.71,-0.83 0.93,-0.32 1.68,-0.64 2.25,-0.94 0.56,-0.32 1.04,-0.73 1.46,-1.22 0.41,-0.49 0.71,-1.01 0.9,-1.55 0.2,-0.53 0.29,-1.09 0.29,-1.65 0,-1.13 -0.29,-2.08 -0.88,-2.87 -0.59,-0.78 -1.33,-1.33 -2.27,-1.64 -0.93,-0.3 -1.96,-0.45 -3.08,-0.45 -4.18,0 -8.79,1.22 -13.83,3.65l0.01 0zm37.12 33.81l1 -20.18 0.27 -11.72c0.05,-2.4 0.07,-4.82 0.07,-7.26 0,-0.43 -0.03,-1.78 -0.07,-4.04 2.13,0.06 3.7,0.09 4.71,0.09 1.17,0 2.71,-0.03 4.64,-0.09l-0.17 6.04c0.86,-1.52 1.62,-2.67 2.23,-3.42 0.62,-0.74 1.32,-1.39 2.08,-1.92 0.77,-0.54 1.63,-0.94 2.56,-1.23 0.95,-0.28 1.91,-0.42 2.9,-0.42 0.91,0 1.86,0.14 2.82,0.43 0,2.65 0.09,6.01 0.28,10.08 -1.36,-0.52 -2.58,-0.79 -3.68,-0.79 -1.33,0 -2.5,0.25 -3.52,0.74 -1.02,0.5 -1.95,1.24 -2.75,2.26 -0.82,1 -1.49,2.25 -2.01,3.71 -0.43,1.2 -0.76,2.74 -0.96,4.64 -0.19,1.48 -0.34,3.98 -0.47,7.55 -0.13,3.56 -0.19,7.07 -0.19,10.53 0,1.32 0.03,2.98 0.1,5 -1.73,-0.06 -3.32,-0.09 -4.76,-0.09 -1.42,0 -3.1,0.03 -5.06,0.09l-0.01 0.01zm58.49 -9.56c-0.3,1.66 -0.72,4.65 -1.26,8.95 -2.47,0.65 -4.56,1.09 -6.25,1.32 -1.69,0.22 -3.41,0.33 -5.13,0.33 -2.99,0 -5.69,-0.36 -8.06,-1.1 -2.36,-0.74 -4.44,-2.08 -6.23,-4.06 -1.78,-1.96 -3.1,-4.37 -3.94,-7.23 -0.85,-2.85 -1.27,-5.85 -1.27,-8.98 0,-3.48 0.49,-6.85 1.47,-10.11 0.98,-3.28 2.36,-5.94 4.13,-8.01 1.78,-2.08 3.8,-3.55 6.06,-4.42 2.27,-0.86 4.64,-1.29 7.1,-1.29 2.34,0 4.55,0.36 6.66,1.09 2.11,0.73 3.87,1.9 5.3,3.55 1.43,1.64 2.53,3.61 3.3,5.92 0.76,2.31 1.15,4.87 1.15,7.71 0,1.33 -0.12,2.69 -0.34,4.11l-25.14 0.04c-0.04,1.04 -0.07,1.88 -0.07,2.49 0,1.9 0.27,3.64 0.8,5.21 0.52,1.58 1.29,2.92 2.29,4.03 1.02,1.1 2.21,1.91 3.61,2.43 1.39,0.52 2.76,0.79 4.12,0.79 1.58,0 3.28,-0.22 5.13,-0.64 1.84,-0.42 4.04,-1.13 6.58,-2.15l-0 0.01zm-22.19 -17.03l16.08 0.04c0,-1.38 -0.03,-2.39 -0.1,-3.04 -0.07,-0.67 -0.22,-1.42 -0.46,-2.26 -0.24,-0.84 -0.57,-1.59 -0.99,-2.23 -0.41,-0.64 -0.89,-1.19 -1.44,-1.61 -0.55,-0.43 -1.19,-0.75 -1.91,-0.99 -0.73,-0.23 -1.5,-0.35 -2.32,-0.35 -0.97,0 -1.91,0.19 -2.81,0.56 -0.9,0.36 -1.73,0.91 -2.49,1.63 -0.75,0.71 -1.37,1.52 -1.84,2.4 -0.47,0.88 -0.82,1.74 -1.04,2.55 -0.23,0.83 -0.46,1.91 -0.69,3.29l-0 -0z"/>
   </g>
  </g>
 </g>
</svg>
